<svg fill="none" viewBox="0 0 21 20">
  <path fill="#000" d="M18.267 3.114a.938.938 0 0 0-.881-.881c-3.094-.182-5.827.183-8.125 1.083-2.199.862-3.893 2.198-4.902 3.864-1.377 2.274-1.38 5.035-.036 7.67l-1.361 1.362a.939.939 0 1 0 1.328 1.329l1.362-1.362c1.307.667 2.646 1.004 3.941 1.004a7.133 7.133 0 0 0 3.73-1.04c1.665-1.009 3.001-2.704 3.863-4.902.898-2.299 1.263-5.033 1.081-8.127Zm-5.919 11.423c-1.57.951-3.41 1.023-5.29.229l6.604-6.605a.94.94 0 1 0-1.328-1.328l-6.6 6.61c-.792-1.876-.72-3.722.235-5.291 1.633-2.698 5.51-4.197 10.468-4.082.108 4.956-1.39 8.834-4.089 10.467Z"/>
</svg>
