<svg fill="none" viewBox="0 0 24 24">
  <path fill="#fff" fill-opacity=".5" d="M12.001 4a8 8 0 0 0-3.212 15.327c-.024-.559-.005-1.229.138-1.836.155-.65 1.03-4.36 1.03-4.36s-.255-.511-.255-1.266c0-1.186.687-2.071 1.542-2.071.729 0 1.079.547 1.079 1.201 0 .731-.466 1.826-.705 2.839-.201.849.425 1.541 1.261 1.541 1.517 0 2.538-1.947 2.538-4.253 0-1.753-1.181-3.066-3.329-3.066-2.427 0-3.938 1.81-3.938 3.831 0 .697.204 1.189.527 1.569.147.175.168.246.114.446-.038.147-.126.502-.163.642-.053.203-.217.275-.4.201-1.118-.457-1.638-1.68-1.638-3.057 0-2.272 1.917-4.997 5.717-4.997 3.055 0 5.066 2.21 5.066 4.582 0 3.139-1.746 5.484-4.318 5.484-.864 0-1.676-.468-1.954-.998 0 0-.465 1.844-.563 2.199-.17.616-.502 1.234-.805 1.714A8 8 0 0 0 20 11.999 8 8 0 0 0 12.001 4Z"/>
</svg>
