<svg fill="none" viewBox="0 0 24 24">
  <path fill="#fff" fill-opacity=".5" d="M17.631 7.136a3.842 3.842 0 0 1-.341-.195 4.785 4.785 0 0 1-.875-.73 4.027 4.027 0 0 1-.986-1.998h.004c-.075-.433-.044-.712-.039-.712h-2.973V14.79c0 .152 0 .302-.006.45l-.003.055c0 .008 0 .016-.002.025v.006a2.478 2.478 0 0 1-1.27 1.968 2.525 2.525 0 0 1-1.23.319c-1.384 0-2.507-1.11-2.507-2.479 0-1.37 1.123-2.479 2.507-2.479.263-.001.523.04.772.12l.004-2.973a5.59 5.59 0 0 0-4.254 1.222 5.753 5.753 0 0 0-1.273 1.542c-.126.213-.599 1.066-.656 2.452-.036.787.204 1.602.319 1.938v.008c.072.198.351.875.807 1.445.367.458.801.86 1.287 1.193v-.007l.007.007c1.439.961 3.035.898 3.035.898.276-.011 1.201 0 2.252-.489a5.645 5.645 0 0 0 1.828-1.35 5.6 5.6 0 0 0 .997-1.627 5.993 5.993 0 0 0 .359-1.86v-5.99c.036.022.516.334.516.334s.692.435 1.771.719c.775.202 1.818.244 1.818.244V7.583c-.366.039-1.108-.075-1.868-.447Z"/>
</svg>
