<svg fill="none" viewBox="0 0 24 24">
  <path fill="#fff" fill-opacity=".5" d="M21.968 6.518A2.25 2.25 0 0 0 20.61 4.98C17.396 3.739 12.281 3.75 12 3.75c-.281 0-5.396-.011-8.61 1.23a2.25 2.25 0 0 0-1.358 1.537C1.789 7.454 1.5 9.163 1.5 12c0 2.837.289 4.547.532 5.483A2.25 2.25 0 0 0 3.39 19.02c3.079 1.188 7.897 1.229 8.548 1.229h.124c.65 0 5.472-.041 8.548-1.23a2.25 2.25 0 0 0 1.358-1.537c.243-.938.532-2.646.532-5.483 0-2.837-.289-4.547-.532-5.482Zm-6.76 5.794-4.5 3a.375.375 0 0 1-.583-.312V9a.376.376 0 0 1 .583-.312l4.5 3a.375.375 0 0 1 0 .624Z"/>
</svg>
